<svg viewBox="0 0 396 78" data-background-color="#ffffff" preserveAspectRatio="xMidYMid meet" height="393" width="2000" xmlns="http://www.w3.org/2000/svg"><g id="tight-bounds" transform="matrix(1,0,0,1,0.2400000000000091,-0.125684300099266)"><svg viewBox="0 0 395.52 78.25136860019855" height="78.25136860019855" width="395.52"><g><svg viewBox="0 0 395.52 78.25136860019855" height="78.25136860019855" width="395.52"><g><svg viewBox="0 0 395.52 78.25136860019855" height="78.25136860019855" width="395.52"><g id="textblocktransform"><svg viewBox="0 0 395.52 78.25136860019855" height="78.25136860019855" width="395.52" id="textblock"><g><svg viewBox="0 0 395.52 78.25136860019855" height="78.25136860019855" width="395.52"><g transform="matrix(1,0,0,1,0,0)"><svg width="395.52" viewBox="-0.85 -47 352.52000000000004 69.75" height="78.25136860019855" data-palette-color="#000000"><path d="M24.7-42.1Q26-42.1 26.9-41.48 27.8-40.85 27.8-39.95L27.8-39.95Q27.8-38.35 26.8-37.38 25.8-36.4 23.95-36.4L23.95-36.4Q21.05-36.4 19.55-36.35L19.55-36.35Q19.45-35.75 18.65-30.95L18.65-30.95Q17.75-25.6 17.55-24.4L17.55-24.4 16.5-17.85Q15.4-10.5 14.75-5.55L14.75-5.55Q15.8-5.6 17.6-5.6L17.6-5.6Q20.25-5.6 21.2-4.9 22.15-4.2 22.15-2.8L22.15-2.8Q22.15-1.5 21.13-0.6 20.1 0.3 18.25 0.3L18.25 0.3Q17 0.3 14.3 0.2L14.3 0.2Q11.8 0.1 11 0.1L11 0.1Q7.85 0.1 4.1 0.65L4.1 0.65Q2.45 0.9 1.75 0.9L1.75 0.9Q0.65 0.9-0.1 0.3-0.85-0.3-0.85-1.45L-0.85-1.45Q-0.85-3.25 0.75-4.25 2.35-5.25 5.25-5.3L5.25-5.3 7.6-5.35 7.75-6.45Q8.95-14.45 9.5-17.75L9.5-17.75 10.6-24.3Q11.6-30.1 12.4-36.25L12.4-36.25 8.2-36.2Q6.4-36.2 5.73-36.77 5.05-37.35 5.05-38.4L5.05-38.4Q5.05-41.8 9.95-42.05L9.95-42.05Q12.25-42.15 15.55-42.15L15.55-42.15 24.7-42.1ZM30.7 0.25Q28.8 0.25 28.02-1.75 27.25-3.75 27.25-8.15L27.25-8.15Q27.25-14.65 29.1-20.5L29.1-20.5Q29.55-21.95 30.57-22.63 31.6-23.3 33.45-23.3L33.45-23.3Q34.45-23.3 34.85-23.05 35.25-22.8 35.25-22.1L35.25-22.1Q35.25-21.3 34.5-18.5L34.5-18.5Q34-16.5 33.7-15 33.4-13.5 33.2-11.3L33.2-11.3Q34.85-15.6 36.9-18.3 38.95-21 40.92-22.15 42.9-23.3 44.55-23.3L44.55-23.3Q47.8-23.3 47.8-20.05L47.8-20.05Q47.8-18.1 46.7-13L46.7-13Q45.75-8.65 45.75-7.25L45.75-7.25Q45.75-5.25 47.2-5.25L47.2-5.25Q48.2-5.25 49.57-6.48 50.95-7.7 53.25-10.45L53.25-10.45Q53.85-11.15 54.6-11.15L54.6-11.15Q55.25-11.15 55.62-10.55 56-9.95 56-8.9L56-8.9Q56-6.9 55.05-5.8L55.05-5.8Q52.9-3.15 50.42-1.45 47.95 0.25 44.8 0.25L44.8 0.25Q42.25 0.25 40.95-1.23 39.65-2.7 39.65-5.5L39.65-5.5Q39.65-6.9 40.35-10.5L40.35-10.5Q41-13.65 41-14.85L41-14.85Q41-15.65 40.45-15.65L40.45-15.65Q39.8-15.65 38.62-13.98 37.45-12.3 36.22-9.55 35-6.8 34.25-3.75L34.25-3.75Q33.7-1.4 32.97-0.58 32.25 0.25 30.7 0.25L30.7 0.25ZM61.25 1.35Q58.65 1.35 57.27 0.15 55.9-1.05 55.9-2.55L55.9-2.55Q55.9-3.85 56.84-4.8 57.8-5.75 59.65-5.75L59.65-5.75Q60.3-5.75 61.17-5.63 62.05-5.5 62.5-5.45L62.5-5.45Q62.45-6.75 61.92-7.9 61.4-9.05 60.59-10.13 59.8-11.2 59.09-12L59.09-12Q57.55-9.05 56.02-7.1 54.5-5.15 52.7-3.4L52.7-3.4Q51.8-2.5 50.8-2.5L50.8-2.5Q50-2.5 49.5-3.08 49-3.65 49-4.5L49-4.5Q49-5.5 49.7-6.35L49.7-6.35 50.34-7.15Q53.09-10.55 54.5-12.75L54.5-12.75Q55.34-14.2 56.5-16.63 57.65-19.05 58.75-21.65L58.75-21.65Q59.7-23.85 62.7-23.85L62.7-23.85Q64.09-23.85 64.65-23.6 65.2-23.35 65.2-22.8L65.2-22.8Q65.2-22.5 65-21.85 64.8-21.2 64.45-20.55L64.45-20.55Q63.55-18.75 63.55-17.5L63.55-17.5Q63.55-16.75 64.07-15.85 64.59-14.95 65.7-13.6L65.7-13.6Q67.3-11.5 68.12-10.03 68.95-8.55 68.95-6.8L68.95-6.8Q68.95-6.3 68.84-5.4L68.84-5.4Q71.3-6.35 74.59-10.45L74.59-10.45Q75.2-11.15 75.95-11.15L75.95-11.15Q76.59-11.15 76.97-10.55 77.34-9.95 77.34-8.9L77.34-8.9Q77.34-7 76.4-5.8L76.4-5.8Q73.9-2.7 71.62-1.58 69.34-0.45 66-0.35L66-0.35Q64 1.35 61.25 1.35L61.25 1.35ZM95.59-11.15Q96.24-11.15 96.62-10.55 96.99-9.95 96.99-8.9L96.99-8.9Q96.99-6.9 96.04-5.8L96.04-5.8Q93.89-3.15 91.34-1.45 88.79 0.25 85.49 0.25L85.49 0.25Q75.29 0.25 75.29-14.1L75.29-14.1Q75.29-16.3 75.44-18.55L75.44-18.55 73.49-18.55Q71.99-18.55 71.47-19.1 70.94-19.65 70.94-20.85L70.94-20.85Q70.94-23.65 73.19-23.65L73.19-23.65 76.04-23.65Q76.89-29.15 78.64-33.7 80.39-38.25 82.87-40.95 85.34-43.65 88.19-43.65L88.19-43.65Q90.29-43.65 91.49-41.8 92.69-39.95 92.69-37.15L92.69-37.15Q92.69-29.4 86.19-23.65L86.19-23.65 91.79-23.65Q92.59-23.65 92.94-23.3 93.29-22.95 93.29-22L93.29-22Q93.29-18.55 87.64-18.55L87.64-18.55 81.54-18.55Q81.44-16.05 81.44-14.65L81.44-14.65Q81.44-9.45 82.67-7.35 83.89-5.25 86.54-5.25L86.54-5.25Q88.69-5.25 90.34-6.55 91.99-7.85 94.24-10.45L94.24-10.45Q94.84-11.15 95.59-11.15L95.59-11.15ZM86.84-38.85Q86.09-38.85 85.17-36.98 84.24-35.1 83.42-31.78 82.59-28.45 82.04-24.4L82.04-24.4Q84.99-26.95 86.47-30.13 87.94-33.3 87.94-35.9L87.94-35.9Q87.94-38.85 86.84-38.85L86.84-38.85ZM99.09 0.25Q95.99 0.25 94.14-2 92.29-4.25 92.29-7.9L92.29-7.9Q92.29-11.9 94.14-15.48 95.99-19.05 99.07-21.23 102.14-23.4 105.59-23.4L105.59-23.4Q106.69-23.4 107.07-22.98 107.44-22.55 107.69-21.45L107.69-21.45Q108.74-21.65 109.89-21.65L109.89-21.65Q112.34-21.65 112.34-19.9L112.34-19.9Q112.34-18.85 111.59-14.9L111.59-14.9Q110.44-9.15 110.44-6.9L110.44-6.9Q110.44-6.15 110.82-5.7 111.19-5.25 111.79-5.25L111.79-5.25Q112.74-5.25 114.09-6.48 115.44-7.7 117.74-10.45L117.74-10.45Q118.34-11.15 119.09-11.15L119.09-11.15Q119.74-11.15 120.12-10.55 120.49-9.95 120.49-8.9L120.49-8.9Q120.49-6.9 119.54-5.8L119.54-5.8Q117.49-3.25 115.19-1.5 112.89 0.25 110.74 0.25L110.74 0.25Q109.09 0.25 107.72-0.88 106.34-2 105.64-3.95L105.64-3.95Q103.04 0.25 99.09 0.25L99.09 0.25ZM100.89-4.8Q101.99-4.8 102.99-6.1 103.99-7.4 104.44-9.55L104.44-9.55 106.29-18.75Q104.19-18.7 102.42-17.18 100.64-15.65 99.59-13.15 98.54-10.65 98.54-7.85L98.54-7.85Q98.54-6.3 99.17-5.55 99.79-4.8 100.89-4.8L100.89-4.8ZM142.04-11.05Q142.69-11.05 143.06-10.43 143.44-9.8 143.44-8.85L143.44-8.85Q143.44-7.7 143.09-7.05 142.74-6.4 141.99-5.9L141.99-5.9Q137.69-3 135.69-1.6L135.69-1.6 132.49 0.55Q130.59 10.9 127.51 16.82 124.44 22.75 119.69 22.75L119.69 22.75Q117.14 22.75 115.54 21.18 113.94 19.6 113.94 17.05L113.94 17.05Q113.94 13.5 116.74 9.43 119.54 5.35 127.24-0.6L127.24-0.6 127.54-2.55Q126.69-1.2 125.31-0.48 123.94 0.25 122.59 0.25L122.59 0.25Q119.49 0.25 117.64-2 115.79-4.25 115.79-7.9L115.79-7.9Q115.79-11.9 117.64-15.48 119.49-19.05 122.56-21.23 125.64-23.4 129.09-23.4L129.09-23.4Q130.19-23.4 130.56-22.98 130.94-22.55 131.19-21.45L131.19-21.45Q132.14-21.65 133.39-21.65L133.39-21.65Q134.64-21.65 135.16-21.28 135.69-20.9 135.69-19.8L135.69-19.8Q135.69-19.2 135.64-18.85L135.64-18.85Q135.44-17.3 134.39-11L134.39-11Q134.19-9.8 133.96-8.38 133.74-6.95 133.49-5.35L133.49-5.35Q137.34-8.35 140.89-10.65L140.89-10.65Q141.54-11.05 142.04-11.05L142.04-11.05ZM124.39-4.8Q125.54-4.8 126.59-6.2 127.64-7.6 128.09-10.2L128.09-10.2 129.69-18.75Q127.64-18.7 125.89-17.18 124.14-15.65 123.09-13.15 122.04-10.65 122.04-7.85L122.04-7.85Q122.04-6.3 122.66-5.55 123.29-4.8 124.39-4.8L124.39-4.8ZM120.24 17.9Q121.49 17.9 123.06 14.9 124.64 11.9 126.09 5.35L126.09 5.35Q122.24 8.65 120.54 11.3 118.84 13.95 118.84 15.95L118.84 15.95Q118.84 16.8 119.16 17.35 119.49 17.9 120.24 17.9L120.24 17.9ZM143.38 0.25Q141.49 0.25 140.71-1.75 139.94-3.75 139.94-8.15L139.94-8.15Q139.94-14.65 141.78-20.5L141.78-20.5Q142.24-21.95 143.26-22.63 144.28-23.3 146.13-23.3L146.13-23.3Q147.13-23.3 147.53-23.05 147.94-22.8 147.94-22.1L147.94-22.1Q147.94-21.3 147.19-18.5L147.19-18.5Q146.69-16.5 146.38-15 146.09-13.5 145.88-11.3L145.88-11.3Q147.53-15.6 149.59-18.3 151.63-21 153.61-22.15 155.59-23.3 157.24-23.3L157.24-23.3Q160.49-23.3 160.49-20.05L160.49-20.05Q160.49-19.4 160.03-16.9L160.03-16.9Q159.63-14.9 159.63-14.4L159.63-14.4Q159.63-12.65 160.88-12.65L160.88-12.65Q162.28-12.65 164.49-14.85L164.49-14.85Q165.13-15.5 165.84-15.5L165.84-15.5Q166.49-15.5 166.86-14.93 167.24-14.35 167.24-13.4L167.24-13.4Q167.24-11.55 166.24-10.5L166.24-10.5Q164.84-9.05 162.96-8.03 161.09-7 158.99-7L158.99-7Q156.34-7 154.96-8.35 153.59-9.7 153.59-12L153.59-12Q153.59-12.75 153.74-13.5L153.74-13.5Q153.84-14.5 153.84-14.85L153.84-14.85Q153.84-15.65 153.28-15.65L153.28-15.65Q152.53-15.65 151.31-13.98 150.09-12.3 148.88-9.55 147.69-6.8 146.94-3.75L146.94-3.75Q146.38-1.4 145.66-0.58 144.94 0.25 143.38 0.25L143.38 0.25ZM168.73 0.25Q165.63 0.25 163.78-2 161.93-4.25 161.93-7.9L161.93-7.9Q161.93-11.9 163.78-15.48 165.63-19.05 168.71-21.23 171.78-23.4 175.23-23.4L175.23-23.4Q176.33-23.4 176.71-22.98 177.08-22.55 177.33-21.45L177.33-21.45Q178.38-21.65 179.53-21.65L179.53-21.65Q181.98-21.65 181.98-19.9L181.98-19.9Q181.98-18.85 181.23-14.9L181.23-14.9Q180.08-9.15 180.08-6.9L180.08-6.9Q180.08-6.15 180.46-5.7 180.83-5.25 181.43-5.25L181.43-5.25Q182.38-5.25 183.73-6.48 185.08-7.7 187.38-10.45L187.38-10.45Q187.98-11.15 188.73-11.15L188.73-11.15Q189.38-11.15 189.76-10.55 190.13-9.95 190.13-8.9L190.13-8.9Q190.13-6.9 189.18-5.8L189.18-5.8Q187.13-3.25 184.83-1.5 182.53 0.25 180.38 0.25L180.38 0.25Q178.73 0.25 177.36-0.88 175.98-2 175.28-3.95L175.28-3.95Q172.68 0.25 168.73 0.25L168.73 0.25ZM170.53-4.8Q171.63-4.8 172.63-6.1 173.63-7.4 174.08-9.55L174.08-9.55 175.93-18.75Q173.83-18.7 172.06-17.18 170.28-15.65 169.23-13.15 168.18-10.65 168.18-7.85L168.18-7.85Q168.18-6.3 168.81-5.55 169.43-4.8 170.53-4.8L170.53-4.8ZM189.63 0.25Q187.73 0.25 186.96-1.75 186.18-3.75 186.18-8.15L186.18-8.15Q186.18-14.65 188.03-20.5L188.03-20.5Q188.48-21.95 189.5-22.63 190.53-23.3 192.38-23.3L192.38-23.3Q193.38-23.3 193.78-23.05 194.18-22.8 194.18-22.1L194.18-22.1Q194.18-21.3 193.43-18.5L193.43-18.5Q192.93-16.5 192.63-15.03 192.33-13.55 192.13-11.35L192.13-11.35Q193.48-15.25 195.36-17.95 197.23-20.65 199.21-21.98 201.18-23.3 202.93-23.3L202.93-23.3Q204.68-23.3 205.41-22.5 206.13-21.7 206.13-20.05L206.13-20.05Q206.13-18.45 205.18-14.25L205.18-14.25Q204.78-12.45 204.63-11.55L204.63-11.55Q207.13-17.7 210.18-20.5 213.23-23.3 215.88-23.3L215.88-23.3Q219.13-23.3 219.13-20.05L219.13-20.05Q219.13-18.1 218.03-13L218.03-13Q217.08-8.65 217.08-7.25L217.08-7.25Q217.08-5.25 218.53-5.25L218.53-5.25Q219.53-5.25 220.91-6.48 222.28-7.7 224.58-10.45L224.58-10.45Q225.18-11.15 225.93-11.15L225.93-11.15Q226.58-11.15 226.96-10.55 227.33-9.95 227.33-8.9L227.33-8.9Q227.33-6.9 226.38-5.8L226.38-5.8Q224.23-3.15 221.75-1.45 219.28 0.25 216.13 0.25L216.13 0.25Q213.58 0.25 212.28-1.23 210.98-2.7 210.98-5.5L210.98-5.5Q210.98-6.9 211.68-10.5L211.68-10.5Q212.33-13.65 212.33-14.85L212.33-14.85Q212.33-15.65 211.78-15.65L211.78-15.65Q211.13-15.65 209.93-13.98 208.73-12.3 207.53-9.55 206.33-6.8 205.58-3.75L205.58-3.75Q205.03-1.35 204.31-0.55 203.58 0.25 201.98 0.25L201.98 0.25Q200.33 0.25 199.5-1.33 198.68-2.9 198.68-5.15L198.68-5.15Q198.68-7.05 199.18-10.65L199.18-10.65Q199.58-13.85 199.58-14.85L199.58-14.85Q199.58-15.65 199.03-15.65L199.03-15.65Q198.28-15.65 197.13-13.85 195.98-12.05 194.91-9.25 193.83-6.45 193.18-3.75L193.18-3.75Q192.63-1.4 191.91-0.58 191.18 0.25 189.63 0.25L189.63 0.25ZM228.88-12.3Q227.68-12.2 226.95-13 226.23-13.8 226.23-15.25L226.23-15.25Q226.23-16.6 226.9-17.25 227.58-17.9 228.88-18L228.88-18 239.13-19Q240.38-19.1 241.05-18.38 241.73-17.65 241.73-16.25L241.73-16.25Q241.73-13.55 239.13-13.3L239.13-13.3 228.88-12.3ZM255.47 0.25Q250.58 0.25 247.85-2.53 245.13-5.3 245.13-9.85L245.13-9.85Q245.13-13.9 246.72-16.95 248.33-20 250.88-21.65 253.43-23.3 256.23-23.3L256.23-23.3Q258.98-23.3 260.5-21.68 262.02-20.05 262.02-17.5L262.02-17.5Q262.02-15.4 261.1-13.95 260.18-12.5 258.68-12.5L258.68-12.5Q257.73-12.5 257.15-12.95 256.57-13.4 256.57-14.2L256.57-14.2Q256.57-14.55 256.68-15 256.77-15.45 256.82-15.65L256.82-15.65Q257.07-16.4 257.07-17.05L257.07-17.05Q257.07-17.7 256.75-18.05 256.43-18.4 255.83-18.4L255.83-18.4Q254.68-18.4 253.68-17.38 252.68-16.35 252.08-14.6 251.47-12.85 251.47-10.75L251.47-10.75Q251.47-4.95 256.52-4.95L256.52-4.95Q258.57-4.95 260.95-6.33 263.32-7.7 265.63-10.45L265.63-10.45Q266.23-11.15 266.98-11.15L266.98-11.15Q267.63-11.15 268-10.55 268.38-9.95 268.38-8.9L268.38-8.9Q268.38-7 267.43-5.8L267.43-5.8Q265.07-2.9 261.8-1.33 258.52 0.25 255.47 0.25L255.47 0.25ZM283.27-11.15Q283.92-11.15 284.3-10.55 284.67-9.95 284.67-8.9L284.67-8.9Q284.67-6.9 283.72-5.8L283.72-5.8Q281.57-3.15 279.05-1.45 276.52 0.25 273.32 0.25L273.32 0.25Q268.92 0.25 266.8-3.75 264.67-7.75 264.67-14.1L264.67-14.1Q264.67-20.2 266.25-28 267.82-35.8 270.9-41.4 273.97-47 278.22-47L278.22-47Q280.62-47 282-44.78 283.37-42.55 283.37-38.4L283.37-38.4Q283.37-32.45 280.07-24.6 276.77-16.75 271.12-9.05L271.12-9.05Q271.47-7 272.27-6.13 273.07-5.25 274.37-5.25L274.37-5.25Q276.42-5.25 277.97-6.43 279.52-7.6 281.92-10.45L281.92-10.45Q282.52-11.15 283.27-11.15L283.27-11.15ZM277.12-42.05Q275.97-42.05 274.52-37.9 273.07-33.75 271.97-27.6 270.87-21.45 270.77-15.8L270.77-15.8Q274.32-21.65 276.42-27.53 278.52-33.4 278.52-38.25L278.52-38.25Q278.52-42.05 277.12-42.05L277.12-42.05ZM306.12-15.35Q306.77-15.35 307.12-14.7 307.47-14.05 307.47-13.05L307.47-13.05Q307.47-10.65 306.02-10.2L306.02-10.2Q303.02-9.15 299.42-9L299.42-9Q298.47-4.8 295.67-2.27 292.87 0.25 289.32 0.25L289.32 0.25Q286.32 0.25 284.2-1.2 282.07-2.65 280.97-5.05 279.87-7.45 279.87-10.25L279.87-10.25Q279.87-14.05 281.32-17.03 282.77-20 285.32-21.68 287.87-23.35 290.97-23.35L290.97-23.35Q294.77-23.35 297.1-20.73 299.42-18.1 299.82-14.25L299.82-14.25Q302.17-14.4 305.42-15.25L305.42-15.25Q305.82-15.35 306.12-15.35L306.12-15.35ZM289.72-5.05Q291.32-5.05 292.5-6.35 293.67-7.65 294.07-10.1L294.07-10.1Q292.52-11.15 291.7-12.85 290.87-14.55 290.87-16.45L290.87-16.45Q290.87-17.25 291.02-18.05L291.02-18.05 290.77-18.05Q288.77-18.05 287.45-16.13 286.12-14.2 286.12-10.7L286.12-10.7Q286.12-7.95 287.2-6.5 288.27-5.05 289.72-5.05L289.72-5.05ZM306.72 0.25Q304.82 0.25 304.04-1.75 303.27-3.75 303.27-8.15L303.27-8.15Q303.27-14.65 305.12-20.5L305.12-20.5Q305.57-21.95 306.59-22.63 307.62-23.3 309.47-23.3L309.47-23.3Q310.47-23.3 310.87-23.05 311.27-22.8 311.27-22.1L311.27-22.1Q311.27-21.3 310.52-18.5L310.52-18.5Q310.02-16.5 309.72-15 309.42-13.5 309.22-11.3L309.22-11.3Q310.87-15.6 312.92-18.3 314.97-21 316.94-22.15 318.92-23.3 320.57-23.3L320.57-23.3Q323.82-23.3 323.82-20.05L323.82-20.05Q323.82-18.1 322.72-13L322.72-13Q321.77-8.65 321.77-7.25L321.77-7.25Q321.77-5.25 323.22-5.25L323.22-5.25Q324.22-5.25 325.59-6.48 326.97-7.7 329.27-10.45L329.27-10.45Q329.87-11.15 330.62-11.15L330.62-11.15Q331.27-11.15 331.64-10.55 332.02-9.95 332.02-8.9L332.02-8.9Q332.02-6.9 331.07-5.8L331.07-5.8Q328.92-3.15 326.44-1.45 323.97 0.25 320.82 0.25L320.82 0.25Q318.27 0.25 316.97-1.23 315.67-2.7 315.67-5.5L315.67-5.5Q315.67-6.9 316.37-10.5L316.37-10.5Q317.02-13.65 317.02-14.85L317.02-14.85Q317.02-15.65 316.47-15.65L316.47-15.65Q315.82-15.65 314.64-13.98 313.47-12.3 312.24-9.55 311.02-6.8 310.27-3.75L310.27-3.75Q309.72-1.4 308.99-0.58 308.27 0.25 306.72 0.25L306.72 0.25ZM350.27-11.15Q350.92-11.15 351.29-10.55 351.67-9.95 351.67-8.9L351.67-8.9Q351.67-6.9 350.72-5.8L350.72-5.8Q348.87-3.55 345.49-1.65 342.12 0.25 338.27 0.25L338.27 0.25Q333.02 0.25 330.12-2.6 327.22-5.45 327.22-10.4L327.22-10.4Q327.22-13.85 328.67-16.82 330.12-19.8 332.69-21.55 335.27-23.3 338.52-23.3L338.52-23.3Q341.42-23.3 343.17-21.58 344.92-19.85 344.92-16.9L344.92-16.9Q344.92-13.45 342.44-10.98 339.97-8.5 334.07-7.05L334.07-7.05Q335.32-4.75 338.82-4.75L338.82-4.75Q341.07-4.75 343.94-6.33 346.82-7.9 348.92-10.45L348.92-10.45Q349.52-11.15 350.27-11.15L350.27-11.15ZM337.67-18.4Q335.82-18.4 334.54-16.25 333.27-14.1 333.27-11.05L333.27-11.05 333.27-10.95Q336.22-11.65 337.92-13.05 339.62-14.45 339.62-16.3L339.62-16.3Q339.62-17.25 339.09-17.82 338.57-18.4 337.67-18.4L337.67-18.4Z" opacity="1" transform="matrix(1,0,0,1,0,0)" fill="#000000" class="wordmark-text-0" data-fill-palette-color="primary" id="text-0"></path></svg></g></svg></g></svg></g></svg></g></svg></g></svg><rect width="395.52" height="78.25136860019855" fill="none" stroke="none" visibility="hidden"></rect></g></svg>